# xmcd
#
# Track frame offsets:
#	150
#	15002
#	28845
#	46650
#	64112
#	80085
#	99937
#	115612
#	132710
#	153415
#	166982
#	182910
#	196570
#	221180
#
# Disc length: 3239 seconds
#
# Revision: 1
# Processed by: cddbd v1.5.2PL0 Copyright (c) Steve Scherf et al.
# Submitted via: audiograbber 1.83.01
#
DISCID=b10ca50e
DTITLE=The Boogiemen - Boogie Time
DYEAR=1997
DGENRE=Blues/Rock
TTITLE0=Can't Stand It No More
TTITLE1=Sweet Talk
TTITLE2=Just Like That
TTITLE3=Please Do Something
TTITLE4=I'm A Business Man
TTITLE5=Soul Business
TTITLE6=Must Be Love
TTITLE7=Taxpayin' Fools
TTITLE8=Lovin' Arms
TTITLE9=Heeby Jeebies
TTITLE10=Take Me Back Down To Memphis
TTITLE11=Mercy Mercy
TTITLE12=Woman Trouble
TTITLE13=Heartbreaker
EXTD=Blue Moon Records
EXTT0=
EXTT1=
EXTT2=
EXTT3=
EXTT4=
EXTT5=
EXTT6=
EXTT7=
EXTT8=
EXTT9=
EXTT10=
EXTT11=
EXTT12=
EXTT13=
PLAYORDER=
